<svg xmlns="http://www.w3.org/2000/svg"  viewBox="0 0 100 100" width="100px" height="100px"><path d="M23.5,93C16.607,93,11,87.393,11,80.5v-57C11,16.607,16.607,11,23.5,11h57C87.393,11,93,16.607,93,23.5v57 C93,87.393,87.393,93,80.5,93H23.5z" opacity=".35"/><path fill="#f2f2f2" d="M21.5,91C14.607,91,9,85.393,9,78.5v-57C9,14.607,14.607,9,21.5,9h57C85.393,9,91,14.607,91,21.5v57 C91,85.393,85.393,91,78.5,91H21.5z"/><path fill="#ef8630" d="M15.5,78.5v-57c0-3.314,2.686-6,6-6h57c3.314,0,6,2.686,6,6v57c0,3.314-2.686,6-6,6h-57 C18.186,84.5,15.5,81.814,15.5,78.5z"/><path fill="#40396e" d="M78.5,86h-57c-4.136,0-7.5-3.364-7.5-7.5v-57c0-4.136,3.364-7.5,7.5-7.5h57 c4.136,0,7.5,3.364,7.5,7.5v57C86,82.636,82.636,86,78.5,86z M21.5,17c-2.481,0-4.5,2.019-4.5,4.5v57c0,2.481,2.019,4.5,4.5,4.5h57 c2.481,0,4.5-2.019,4.5-4.5v-57c0-2.481-2.019-4.5-4.5-4.5H21.5z"/><g><path fill="#fff" d="M54.941,60.903c2.555-0.511,4.941-1.533,6.985-2.896c1.704-1.022,2.215-3.237,1.193-4.941 c-1.022-1.704-3.237-2.215-4.941-1.193c-4.941,3.067-11.414,3.067-16.355,0c-1.704-1.022-3.918-0.511-4.941,1.193 s-0.511,3.918,1.193,4.941c2.215,1.363,4.6,2.385,6.985,2.896l-6.815,6.815c-1.363,1.363-1.363,3.578,0,5.111 c0.681,0.681,1.533,1.022,2.555,1.022c0.852,0,1.874-0.341,2.555-1.022L50,66.185l6.644,6.644c1.363,1.363,3.578,1.363,5.111,0 c1.363-1.363,1.363-3.578,0-5.111L54.941,60.903z M50,26.149c-6.644,0-11.926,5.281-11.926,11.926S43.356,50,50,50 s11.926-5.281,11.926-11.926S56.644,26.149,50,26.149z M50,43.185c-2.896,0-5.111-2.215-5.111-5.111 c0-2.896,2.215-5.111,5.111-5.111s5.111,2.215,5.111,5.111C55.111,40.971,52.896,43.185,50,43.185z"/></g></svg>